<svg xmlns="http://www.w3.org/2000/svg" viewBox="0 0 117.599998 33.599998"><style type="text/css">  
	.st0{fill:#8D9295;}
	.st1{fill:#0099FF;}
</style><path class="st0" d="M67.337112 23.579296l-0.016602-1.019531c-0.813477 0.783203-1.426758 1.22168-2.371094 1.22168 -1.305668 0-2.715824-0.897461-2.715824-2.677734v-4.726562h0.836914v4.577148c0 1.439453 1.049809 2.136719 2.046879 2.136719 0.793945 0 1.270508-0.354492 2.145508-1.260742v-5.453125h0.836914v7.202148H67.337112z"/><path class="st0" d="M75.883987 19.992382c0 2.319336-0.970703 3.774414-2.892578 3.774414 -0.722656 0-1.291992-0.191406-2.325195-1.158203v4.398438H69.8293V16.377148h0.762695l0.016602 0.970703c0.665039-0.896973 1.542969-1.146973 2.257812-1.146973C74.80098 16.200878 75.883987 17.704296 75.883987 19.992382zM70.666214 18.183788l-0.005859 3.603516c1.036133 1.113281 1.496094 1.303711 2.170898 1.303711 1.560547 0 2.21582-1.180664 2.21582-3.101562 0-1.839844-0.795898-3.113281-2.366211-3.113281C72.026566 16.876171 71.260941 17.117382 70.666214 18.183788z"/><path class="st1" d="M80.348831 16.377148v0.643555h-1.895508v3.573242c0 0.729492 0.177734 1.298828 0.470703 1.68457 0.348633 0.431641 0.817383 0.668945 1.461914 0.741211l-0.009766 0.646484c-0.830078-0.057617-1.547852-0.333984-2.013672-0.851562 -0.487305-0.527344-0.746094-1.257812-0.746094-2.220703v-3.573242h-1.264648v-0.643555h1.264648v-2.101073h0.836914v2.101073H80.348831z"/><path class="st1" d="M87.788284 19.977734c0 2.179688-1.163086 3.789062-3.334961 3.789062 -2.147461 0-3.334961-1.650391-3.334961-3.789062 0-2.137695 1.1875-3.791992 3.334961-3.791992C86.570511 16.185741 87.788284 17.769726 87.788284 19.977734zM81.956253 19.977734c0 1.858398 0.943359 3.113281 2.49707 3.113281 1.579102 0 2.498047-1.21582 2.498047-3.113281 0-1.917969-0.958008-3.112305-2.498047-3.112305C82.899612 16.865429 81.956253 18.119335 81.956253 19.977734z"/><path class="st0" d="M94.525589 23.579296l-1.676758-5.74707 -1.676758 5.74707h-0.879883l-2.286133-7.202148h0.84668l1.87207 5.99707 1.727539-5.99707h0.792969l1.727539 5.99707 1.87207-5.99707h0.847656l-2.286133 7.202148H94.525589z"/><path class="st0" d="M104.578323 19.977734c0 2.179688-1.163086 3.789062-3.334961 3.789062 -2.147461 0-3.334961-1.650391-3.334961-3.789062 0-2.137695 1.1875-3.791992 3.334961-3.791992C103.36055 16.185741 104.578323 17.769726 104.578323 19.977734zM98.746292 19.977734c0 1.858398 0.943359 3.113281 2.49707 3.113281 1.579102 0 2.498047-1.21582 2.498047-3.113281 0-1.917969-0.958008-3.112305-2.498047-3.112305C99.689651 16.865429 98.746292 18.119335 98.746292 19.977734z"/><path class="st0" d="M109.154495 16.875195l-0.222656-0.000977c-0.775391 0-1.563477 0.417969-2.161133 1.47168v5.233398h-0.836914v-7.202148h0.762695l0.017578 1.15625c0.59375-0.875977 1.439453-1.338867 2.30957-1.34375l0.143555 0.000488L109.154495 16.875195z"/><path class="st0" d="M114.189651 16.377148h0.931641l-2.436523 2.854492 2.78125 4.347656h-0.957031l-2.331055-3.685547 -1.177734 1.319336v2.366211h-0.836914V12.96211h0.836914v7.041015L114.189651 16.377148z"/><path class="st0" d="M62.777538 7.517774v2.109863h2.19434v0.386719h-2.19434v2.489258h-0.460938V7.131055h2.866215v0.386719H62.777538z"/><path class="st0" d="M70.665237 9.813672c0 1.601562-0.853516 2.782227-2.381836 2.782227 -1.489258 0-2.375977-1.180176-2.375977-2.782227 0-1.581543 0.858398-2.773438 2.375977-2.773438C69.79805 7.040235 70.665237 8.230664 70.665237 9.813672zM66.367386 9.813672c0 1.431152 0.733398 2.390625 1.916016 2.390625 1.216797 0 1.921875-0.956543 1.921875-2.390625 0-1.415039-0.717773-2.382812-1.921875-2.382812C67.078323 7.43086 66.367386 8.399121 66.367386 9.813672z"/><path class="st0" d="M73.661331 7.130567c0.960938 0 1.512695 0.695312 1.512695 1.67627 0 0.87207-0.413086 1.492188-1.166992 1.630859l1.329102 2.065918h-0.524414l-1.266602-2.01709 -1.375 0.000977v2.016113h-0.460938V7.131055L73.661331 7.130567zM72.169144 10.108106h1.454102c0.694336 0 1.09082-0.495605 1.09082-1.300781 0-0.794922-0.40332-1.296875-1.09082-1.296875h-1.454102V10.108106z"/><path class="st0" d="M80.520706 12.503613V8.047071l-1.69043 4.456543 -0.405273-0.000977 -1.691406-4.455566v4.456543h-0.459961V7.131055h0.552734l1.800781 4.665039 1.800781-4.665039h0.553711v5.372559H80.520706z"/><path class="st0" d="M82.699417 7.517774v2.022461h2.308594v0.386719h-2.308594v2.189941h2.518555v0.386719H82.23848V7.131055h2.979492v0.386719H82.699417z"/><path class="st0" d="M88.10762 7.130567c0.960938 0 1.512695 0.695312 1.512695 1.67627 0 0.87207-0.413086 1.492188-1.166992 1.630859l1.329102 2.065918h-0.524414l-1.266602-2.01709 -1.375 0.000977v2.016113h-0.460938V7.131055L88.10762 7.130567zM86.615433 10.108106h1.454102c0.694336 0 1.09082-0.495605 1.09082-1.300781 0-0.794922-0.40332-1.296875-1.09082-1.296875h-1.454102V10.108106z"/><path class="st0" d="M93.677933 12.132031v0.371582h-2.891602V7.131055h0.460938v5.000977H93.677933z"/><path class="st0" d="M95.290237 12.503613h-0.459961v-2.147949L93.01387 7.131055h0.516602l1.530273 2.754395 1.530273-2.754395h0.515625l-1.816406 3.226074V12.503613z"/><path class="st1" d="M4.591992 22.151562h9.181641v1.504883H2.150098l0.00293-0.858398 8.980957-14.440429H2.607617V6.852735h10.995605l-0.003418 0.839844L4.591992 22.151562z"/><path class="st1" d="M28.893749 8.804883c0.835449 1.001953 1.275879 2.304199 1.155273 3.999023 -0.392578 5.530272-9.200684 4.357421-12.563477 3.838378 0.430176 3.632324 2.51123 5.867676 5.731445 5.89502 1.626953 0.038086 3.309082-0.37793 4.876953-1.414062l0.783691 1.140625c-1.525879 1.171875-3.529297 1.795898-5.672852 1.795898 -4.922852 0-7.699218-3.763672-7.699218-8.853515 0-4.944824 2.596679-8.821289 7.523925-8.821289C25.688671 6.384961 27.78828 7.279981 28.893749 8.804883zM22.996288 7.829297c-3.580078 0-5.541016 2.845215-5.541016 6.850586l0.013184 0.762207c2.599609 0.543945 10.389648 1.694823 10.711426-2.724121 0.249512-3.415527-2.09375-4.88916-5.183594-4.88916V7.829297z"/><path class="st1" d="M40.184277 6.856641v1.500977h-4.420898v8.334472c0 1.70166 0.413086 3.030762 1.097656 3.929199 0.8125 1.008789 1.90625 1.5625 3.410156 1.730469l-0.022949 1.506836c-1.936035-0.134766-3.61084-0.779297-4.696777-1.986328 -1.136719-1.230469-1.740723-2.933594-1.740723-5.180176V8.357617h-2.950195V6.856641h2.950195V1.955273h1.952148v4.901367H40.184277z"/><path class="st1" d="M49.139843 26.949413c-0.633789 1.780273-1.602051 3.023438-2.829102 3.864258 -1.242188 0.839844-2.797852 1.175781-4.414551 1.175781l0.02002-1.512695c1.469238 0.03418 2.628418-0.301758 3.634766-1.075195 0.841309-0.637695 1.529785-1.645508 2.024902-3.056641l0.927734-2.688477h-0.328125L42.173046 6.856641h1.981934l5.074219 14.45996 4.994629-14.45996h1.980957L49.139843 26.949413z"/></svg>