<svg xmlns="http://www.w3.org/2000/svg" viewBox="0 0 58.080002 33.599998"><style type="text/css">  
	.st0{fill:#0099FF;}
</style><path class="st0" d="M4.592246 22.151562h9.181641v1.504883H2.150352l0.00293-0.858398 8.980957-14.440429H2.607871V6.852735h10.995605l-0.003418 0.839844L4.592246 22.151562z"/><path class="st0" d="M28.894005 8.804883c0.835449 1.001953 1.275879 2.304199 1.155762 3.999023 -0.393555 5.530272-9.201172 4.357421-12.563965 3.838378 0.430176 3.632324 2.51123 5.867676 5.731445 5.89502 1.626953 0.038086 3.309082-0.37793 4.876953-1.414062l0.783691 1.140625c-1.525879 1.171875-3.529297 1.795898-5.672852 1.795898 -4.922852 0-7.69922-3.763672-7.69922-8.853515 0-4.944824 2.596681-8.821289 7.523927-8.821289C25.688927 6.384961 27.788536 7.279981 28.894005 8.804883zM22.996544 7.829297c-3.580078 0-5.541016 2.845215-5.541016 6.850586l0.013184 0.762207c2.599609 0.543945 10.389648 1.694823 10.710938-2.724121 0.25-3.415527-2.093262-4.88916-5.183105-4.88916V7.829297z"/><path class="st0" d="M40.184532 6.856641v1.500977h-4.421875v8.334472c0 1.70166 0.414062 3.030762 1.097656 3.929199 0.813477 1.008789 1.90625 1.5625 3.411133 1.730469l-0.023438 1.506836c-1.936523-0.134766-3.611328-0.779297-4.697266-1.986328 -1.136719-1.230469-1.740234-2.933594-1.740234-5.180176V8.357617h-2.950195V6.856641h2.950195V1.955273h1.952148v4.901367H40.184532z"/><path class="st0" d="M49.13961 26.949413c-0.633789 1.780273-1.601562 3.023438-2.829102 3.864258 -1.241211 0.839844-2.796875 1.175781-4.414062 1.175781l0.020508-1.512695c1.46875 0.03418 2.62793-0.301758 3.633789-1.075195 0.841797-0.637695 1.530273-1.645508 2.025391-3.056641l0.927734-2.688477h-0.328125l-6.00293-16.799805h1.982422l5.074219 14.45996 4.994141-14.45996h1.981445L49.13961 26.949413z"/></svg>